ply
format ascii 1.0
comment VCGLIB generated
element vertex 6
property float x
property float y
property float z
property uchar red
property uchar green
property uchar blue
element edge 5
property int vertex1
property int vertex2
property uchar red
property uchar green
property uchar blue
end_header
2.09792 0.0161036 2.19078 0 255 127 
1.97127 0.292286 2.52505 0 255 127 
1.83196 0.704518 2.65416 0 255 127 
1.78961 1.11065 2.69233 0 255 127 
1.54526 1.34361 2.79223 0 255 127 
1.41968 2.06772 2.8332 0 255 127 
0 1 0 255 127
1 2 0 255 127
2 3 0 255 127
3 4 0 255 127
4 5 0 255 127