ply
format ascii 1.0
element vertex 10
property float x
property float y
property float z
property uchar red
property uchar green
property uchar blue
element edge 9
property int vertex1
property int vertex2
property uchar red
property uchar green
property uchar blue
end_header
1.359150052071E+00 -4.094719886780E-01 1.373669981956E+00 255 255 255
1.052219986916E+00 -1.273890025914E-02 1.117300033569E+00 255 255 255
7.79443E-01 1.24142E-01 1.194797E+00 255 255 255
4.97258E-01 1.89861E-01 1.46525E+00 255 255 255
5.874119997025E-01 4.343109950423E-02 1.556470036507E+00 255 255 255
6.33452E-01 1.4838E-02 1.501833E+00 255 255 255
7.467389702797E-01 -8.026939630508E-02 1.528660058975E+00 255 255 255
9.68015E-01 -1.91973E-01 1.548352E+00 255 255 255
1.106259942055E+00 -4.076380133629E-01 1.612190008163E+00 255 255 255
1.359150052071E+00 -4.094719886780E-01 1.373669981956E+00 255 255 255
0 1 255 0 0
1 2 255 0 0
2 3 255 0 0
3 4 255 0 0
4 5 255 0 0
5 6 255 0 0
6 7 255 0 0
7 8 255 0 0
8 9 255 0 0
