ply
format ascii 1.0
element vertex 8
property float x
property float y
property float z
property uchar red
property uchar green
property uchar blue
element edge 7
property int vertex1
property int vertex2
property uchar red
property uchar green
property uchar blue
end_header
8.786039948463E-01 -1.391369998455E-01 5.187849998474E+00 255 255 255
8.309419751167E-01 1.031540036201E-01 5.227940082550E+00 255 255 255
7.717400193214E-01 1.450600028038E-01 5.208700180054E+00 255 255 255
5.449720025063E-01 8.042230010033E-01 4.987659931183E+00 255 255 255
4.101229906082E-01 9.882419705391E-01 4.878980159760E+00 255 255 255
3.861240148544E-01 1.497460007668E+00 4.794400215149E+00 255 255 255
2.997510135174E-01 1.528069972992E+00 4.036129951477E+00 255 255 255
4.844210147858E-01 2.060509920120E+00 4.073040008545E+00 255 255 255
0 1 255 255 0
1 2 255 255 0
2 3 255 255 0
3 4 255 255 0
4 5 255 255 0
5 6 255 255 0
6 7 255 255 0
