ply
format ascii 1.0
comment VCGLIB generated
element vertex 13
property float x
property float y
property float z
property uchar red
property uchar green
property uchar blue
element edge 12
property int vertex1
property int vertex2
property uchar red
property uchar green
property uchar blue
end_header
0.878604 -0.139137 5.18785 255 255 0 
0.830942 0.103154 5.22794 255 255 0 
0.77174 0.14506 5.2087 255 255 0 
0.69972 0.138523 5.1122 255 255 0 
0.57413436 0.05275214 4.73334867 255 255 0
0.435138 0.201191 4.97501 255 255 0 
0.46177 0.301235 5.00615 255 255 0 
0.49422319 0.46117498 5.0207884 255 255 0
0.580309 0.903652 4.93958 255 255 0 
0.410123 0.988242 4.87898 255 255 0 
0.386124 1.49746 4.7944 255 255 0 
0.299751 1.52807 4.03613 255 255 0 
0.484421 2.06051 4.07304 255 255 0 
0 1 255 255 0
1 2 255 255 0
2 3 255 255 0
3 4 255 255 0
4 5 255 255 0
5 6 255 255 0
6 7 255 255 0
7 8 255 255 0
8 9 255 255 0
9 10 255 255 0
10 11 255 255 0
11 12 255 255 0
