ply
format ascii 1.0
comment VCGLIB generated
element vertex 4
property float x
property float y
property float z
property uchar red
property uchar green
property uchar blue
element edge 4
property int vertex1
property int vertex2
property uchar red
property uchar green
property uchar blue
end_header
-0.657208 1.2409 2.93151 0 170 255
-0.693995 1.19847 3.03879 0 170 255
-0.640229 1.13182 2.9818 0 170 255
-0.591398 1.15814 2.86143 0 170 255 
0 1 0 170 255
1 2 0 170 255
2 3 0 170 255
3 0 0 170 255