ply
format ascii 1.0
comment VCGLIB generated
element vertex 11
property float x
property float y
property float z
property uchar red
property uchar green
property uchar blue
element edge 10
property int vertex1
property int vertex2
property uchar red
property uchar green
property uchar blue
end_header
1.35915 -0.409472 1.37367 255 0 0 
1.04201 -0.056473 1.15671 255 0 0 
0.957097 0.074838 1.07251 255 0 0 
0.779443 0.124142 1.194797 255 0 0 
0.497258 0.189861 1.46525 255 0 0 
0.642405 0.005881 1.50223 255 0 0 
0.707205 -0.044515 1.51125 255 0 0 
0.746739 -0.0802694 1.52866 255 0 0 
0.968015 -0.191973 1.548352 255 0 0 
1.10626 -0.407638 1.61219 255 0 0 
1.35915 -0.409472 1.37367 255 0 0 
0 1 255 0 0
1 2 255 0 0
2 3 255 0 0
3 4 255 0 0
4 5 255 0 0
5 6 255 0 0
6 7 255 0 0
7 8 255 0 0
8 9 255 0 0
9 10 255 0 0
